<mxfile host="65bd71144e">
    <diagram id="J8IINlGEAlVSD8V4ow5n" name="Page-1">
        <mxGraphModel dx="1825" dy="1185" grid="1" gridSize="10" guides="1" tooltips="1" connect="1" arrows="1" fold="1" page="1" pageScale="1" pageWidth="1600" pageHeight="1200" math="0" shadow="0">
            <root>
                <mxCell id="0"/>
                <mxCell id="1" parent="0"/>
                <mxCell id="4" value="&lt;font style=&quot;font-size: 18px;&quot;&gt;Gamemodes:&lt;/font&gt;&lt;div&gt;&lt;font size=&quot;3&quot;&gt;1. Running&lt;/font&gt;&lt;/div&gt;&lt;div&gt;&lt;font size=&quot;3&quot;&gt;2. Fighting&lt;/font&gt;&lt;/div&gt;&lt;div&gt;&lt;font size=&quot;3&quot;&gt;3. Endscreen&lt;/font&gt;&lt;/div&gt;&lt;div&gt;&lt;font size=&quot;3&quot;&gt;4. Titlescreen&lt;/font&gt;&lt;/div&gt;" style="text;html=1;align=center;verticalAlign=middle;whiteSpace=wrap;rounded=0;" parent="1" vertex="1">
                    <mxGeometry x="80" y="70" width="190" height="130" as="geometry"/>
                </mxCell>
                <mxCell id="5" value="&lt;font style=&quot;font-size: 14px;&quot;&gt;Libraries:&lt;/font&gt;&lt;div&gt;&lt;br&gt;&lt;/div&gt;" style="text;html=1;align=center;verticalAlign=middle;whiteSpace=wrap;rounded=0;" parent="1" vertex="1">
                    <mxGeometry x="490" y="90" width="100" height="80" as="geometry"/>
                </mxCell>
                <mxCell id="6" value="" style="rounded=1;whiteSpace=wrap;html=1;" vertex="1" parent="1">
                    <mxGeometry x="480" y="350" width="380" height="280" as="geometry"/>
                </mxCell>
                <mxCell id="7" value="Fighting Mode" style="text;html=1;align=center;verticalAlign=middle;whiteSpace=wrap;rounded=0;fontSize=18;fontStyle=4" vertex="1" parent="1">
                    <mxGeometry x="490" y="350" width="140" height="60" as="geometry"/>
                </mxCell>
                <mxCell id="8" value="" style="rounded=1;whiteSpace=wrap;html=1;" vertex="1" parent="1">
                    <mxGeometry x="480" y="560" width="380" height="70" as="geometry"/>
                </mxCell>
                <mxCell id="9" value="Stats:&lt;div&gt;---&lt;/div&gt;&lt;div&gt;---&lt;/div&gt;&lt;div&gt;---&lt;/div&gt;" style="text;html=1;align=center;verticalAlign=middle;whiteSpace=wrap;rounded=0;" vertex="1" parent="1">
                    <mxGeometry x="490" y="580" width="60" height="30" as="geometry"/>
                </mxCell>
                <mxCell id="10" value="Boosts:&lt;div&gt;---&lt;/div&gt;&lt;div&gt;---&lt;/div&gt;&lt;div&gt;---&lt;/div&gt;" style="text;html=1;align=center;verticalAlign=middle;whiteSpace=wrap;rounded=0;" vertex="1" parent="1">
                    <mxGeometry x="550" y="580" width="60" height="30" as="geometry"/>
                </mxCell>
                <mxCell id="11" value="Attacks:&lt;div&gt;1 ---&lt;/div&gt;&lt;div&gt;2 ---&lt;/div&gt;&lt;div&gt;3 ---&lt;/div&gt;" style="text;html=1;align=center;verticalAlign=middle;whiteSpace=wrap;rounded=0;" vertex="1" parent="1">
                    <mxGeometry x="640" y="580" width="60" height="30" as="geometry"/>
                </mxCell>
                <mxCell id="12" value="Your HP" style="text;html=1;align=center;verticalAlign=middle;whiteSpace=wrap;rounded=0;" vertex="1" parent="1">
                    <mxGeometry x="510" y="420" width="60" height="30" as="geometry"/>
                </mxCell>
                <mxCell id="13" value="Opp HP" style="text;html=1;align=center;verticalAlign=middle;whiteSpace=wrap;rounded=0;" vertex="1" parent="1">
                    <mxGeometry x="770" y="420" width="60" height="30" as="geometry"/>
                </mxCell>
            </root>
        </mxGraphModel>
    </diagram>
</mxfile>